<?xml version="1.0" encoding="utf-8"?>
<svg viewBox="0 -960 960 960" xmlns="http://www.w3.org/2000/svg">
  <path d="M 306.413 -272.922 C 274.023 -272.922 246.646 -284.103 224.282 -306.468 C 201.918 -328.832 190.736 -356.209 190.736 -388.599 C 190.736 -420.988 201.918 -448.364 224.282 -470.729 C 246.646 -493.093 274.023 -504.276 306.413 -504.276 C 338.802 -504.276 366.18 -493.093 388.543 -470.729 C 410.907 -448.364 422.09 -420.988 422.09 -388.599 C 422.09 -356.209 410.907 -328.832 388.543 -306.468 C 366.18 -284.103 338.802 -272.922 306.413 -272.922 Z M 121.33 -18.432 C 95.881 -18.432 74.095 -27.493 55.972 -45.616 C 37.849 -63.738 28.788 -85.525 28.788 -110.974 L 28.788 -758.765 C 28.788 -784.214 37.849 -805.999 55.972 -824.122 C 74.095 -842.244 95.881 -851.306 121.33 -851.306 L 167.6 -851.306 L 167.6 -943.848 L 260.142 -943.848 L 260.142 -851.306 L 630.308 -851.306 L 630.308 -943.848 L 722.85 -943.848 L 722.85 -851.306 L 769.121 -851.306 C 794.569 -851.306 816.355 -842.244 834.478 -824.122 C 852.601 -805.999 861.662 -784.214 861.662 -758.765 L 861.662 -110.974 C 861.662 -85.525 852.601 -63.738 834.478 -45.616 C 816.355 -27.493 794.569 -18.432 769.121 -18.432 L 121.33 -18.432 Z M 121.33 -110.974 L 769.121 -110.974 L 769.121 -573.682 L 121.33 -573.682 L 121.33 -110.974 Z M 121.33 -666.223 L 769.121 -666.223 L 769.121 -758.765 L 121.33 -758.765 L 121.33 -666.223 Z M 121.33 -666.223 L 121.33 -758.765 L 121.33 -666.223 Z" style="fill: rgb(61, 61, 61);" transform="matrix(1, 0, 0, 1, 0, 2.2737367544323206e-13)"/>
  <path d="M 647.578 -75.091 L 655.151 -110.419 C 656.413 -115.888 659.041 -120.409 663.036 -123.985 C 667.032 -127.557 671.974 -129.766 677.862 -130.608 L 756.09 -136.917 C 761.559 -137.757 766.606 -136.705 771.232 -133.763 C 775.858 -130.818 779.223 -126.823 781.326 -121.776 L 791.421 -97.803 C 807.823 -107.476 822.544 -119.146 835.58 -132.815 C 848.62 -146.484 859.556 -161.732 868.386 -178.554 L 860.816 -182.339 C 856.19 -185.705 852.825 -189.806 850.722 -194.642 C 848.62 -199.48 848.2 -204.631 849.462 -210.099 L 867.126 -287.066 C 868.386 -292.113 871.017 -296.319 875.011 -299.683 C 879.008 -303.048 883.528 -305.15 888.575 -305.992 C 886.474 -316.506 883.844 -326.705 880.69 -336.59 C 877.535 -346.474 873.434 -356.041 868.386 -365.295 C 864.602 -363.192 860.501 -362.247 856.085 -362.455 C 851.67 -362.667 847.779 -364.033 844.414 -366.556 L 777.54 -406.934 C 772.915 -409.876 769.548 -413.873 767.446 -418.919 C 765.343 -423.966 764.923 -429.224 766.183 -434.692 L 771.232 -456.141 C 758.192 -462.03 744.84 -466.446 731.171 -469.39 C 717.502 -472.334 703.518 -473.806 689.218 -473.806 C 683.331 -473.806 677.231 -473.491 670.922 -472.861 C 664.614 -472.228 658.516 -471.282 652.627 -470.02 L 671.554 -427.121 C 673.655 -422.074 674.182 -416.816 673.131 -411.348 C 672.078 -405.882 669.451 -401.466 665.243 -398.1 L 605.943 -346.368 C 601.735 -342.583 596.794 -340.479 591.117 -340.061 C 585.437 -339.639 580.287 -340.902 575.659 -343.844 L 517.62 -379.174 C 507.946 -363.192 500.481 -346.054 495.223 -327.757 C 489.965 -309.463 487.336 -290.849 487.336 -271.925 C 487.336 -265.196 488.176 -254.261 489.859 -239.119 L 545.376 -244.165 C 551.265 -245.007 556.628 -244.062 561.464 -241.328 C 566.301 -238.594 569.772 -234.491 571.876 -229.024 L 602.157 -157.104 C 604.26 -152.059 604.786 -146.801 603.734 -141.334 C 602.681 -135.866 600.054 -131.449 595.847 -128.083 L 571.876 -107.897 C 583.231 -99.486 595.322 -92.544 608.149 -87.077 C 620.976 -81.61 634.12 -77.613 647.578 -75.091 Z M 693.003 -183.602 C 687.536 -182.761 682.489 -183.813 677.862 -186.754 C 673.236 -189.7 669.869 -193.695 667.769 -198.743 L 633.7 -276.971 C 631.598 -282.019 631.283 -287.276 632.754 -292.744 C 634.226 -298.211 637.066 -302.628 641.271 -305.992 L 705.621 -360.247 C 709.406 -364.033 714.032 -366.137 719.499 -366.556 C 724.967 -366.978 730.016 -365.716 734.641 -362.772 L 805.3 -321.134 C 809.926 -318.19 813.5 -314.193 816.025 -309.146 C 818.547 -304.1 819.179 -298.843 817.916 -293.376 L 797.728 -211.359 C 796.467 -205.894 793.944 -201.372 790.159 -197.797 C 786.373 -194.221 781.747 -192.014 776.28 -191.173 L 693.003 -183.602 Z M 689.218 -19.573 C 654.31 -19.573 621.504 -26.198 590.8 -39.446 C 560.098 -52.693 533.389 -70.674 510.68 -93.387 C 487.967 -116.096 469.986 -142.805 456.739 -173.507 C 443.491 -204.211 436.866 -237.017 436.866 -271.925 C 436.866 -306.834 443.491 -339.639 456.739 -370.342 C 469.986 -401.045 487.967 -427.751 510.68 -450.464 C 533.389 -473.174 560.098 -491.154 590.8 -504.403 C 621.504 -517.653 654.31 -524.276 689.218 -524.276 C 724.127 -524.276 756.932 -517.653 787.635 -504.403 C 818.338 -491.154 845.044 -473.174 867.757 -450.464 C 890.467 -427.751 908.447 -401.045 921.696 -370.342 C 934.946 -339.639 941.569 -306.834 941.569 -271.925 C 941.569 -237.017 934.946 -204.211 921.696 -173.507 C 908.447 -142.805 890.467 -116.096 867.757 -93.387 C 845.044 -70.674 818.338 -52.693 787.635 -39.446 C 756.932 -26.198 724.127 -19.573 689.218 -19.573 Z" style="fill: rgb(107, 107, 107);" transform="matrix(1, 0, 0, 1, 0, 2.2737367544323206e-13)"/>
</svg>